<?xml version="1.0" encoding="iso-8859-1"?>
<!-- Generator: Adobe Illustrator 19.0.0, SVG Export Plug-In . SVG Version: 6.00 Build 0)  -->
<svg version="1.1" id="Capa_1" xmlns="http://www.w3.org/2000/svg" xmlns:xlink="http://www.w3.org/1999/xlink" x="0px" y="0px"
	 viewBox="0 0 512 512" style="enable-background:new 0 0 512 512;" fill="#222121" xml:space="preserve">
<g>
	<g>
		<g>
			<path d="M10.632,512h96v-96h-96V512z M42.632,448h32v32h-32V448z"/>
			<path d="M138.632,512h96V368h-96V512z M170.632,400h32v80h-32V400z"/>
			<path d="M266.632,512h96V288h-96V512z M298.632,320h32v160h-32V320z"/>
			<path d="M394.632,512h96V176h-96V512z M426.632,208h32v272h-32V208z"/>
			<path d="M410.632,0v32h45.344C363.44,132.289,250.385,211.466,124.504,264.144l12.272,29.552
				c127.92-53.5,243.064-133.478,337.856-234.672V96h32V0H410.632z"/>
			<path d="M106.536,305.68l-11.2-29.936c-9.813,3.691-19.696,7.221-29.648,10.592l10.272,30.32
				C86.211,313.157,96.403,309.499,106.536,305.68z"/>
			<path d="M44.904,326.576L35.656,296c-10.016,3.029-20.112,5.888-30.288,8.576l8.24,30.944
				C24.104,332.64,34.536,329.659,44.904,326.576z"/>
		</g>
	</g>
</g>
<g>
</g>
<g>
</g>
<g>
</g>
<g>
</g>
<g>
</g>
<g>
</g>
<g>
</g>
<g>
</g>
<g>
</g>
<g>
</g>
<g>
</g>
<g>
</g>
<g>
</g>
<g>
</g>
<g>
</g>
</svg>
