<?xml version="1.0" encoding="iso-8859-1"?>
<!-- Generator: Adobe Illustrator 19.0.0, SVG Export Plug-In . SVG Version: 6.00 Build 0)  -->
<svg version="1.1" id="Capa_1" xmlns="http://www.w3.org/2000/svg" xmlns:xlink="http://www.w3.org/1999/xlink" x="0px" y="0px"
	 viewBox="0 0 512 512" style="enable-background:new 0 0 512 512;" fill="#222121" xml:space="preserve">
<g>
	<g>
		<g>
			<path d="M512,432V0H0v432h176v48h-32v32h224v-32h-32v-48H512z M304,480h-96v-48h96V480z M176,400H32V32h448v288H192v32h288v48
				H176z"/>
			<rect x="416" y="96" width="32" height="32"/>
			<rect x="320" y="96" width="64" height="32"/>
			<rect x="192" y="96" width="96" height="32"/>
			<rect x="64" y="96" width="96" height="32"/>
			<rect x="384" y="160" width="64" height="32"/>
			<rect x="256" y="160" width="96" height="32"/>
			<rect x="160" y="160" width="64" height="32"/>
			<rect x="64" y="160" width="64" height="32"/>
			<rect x="416" y="224" width="32" height="32"/>
			<rect x="352" y="224" width="32" height="32"/>
			<rect x="224" y="224" width="96" height="32"/>
			<rect x="64" y="224" width="128" height="32"/>
			<rect x="64" y="320" width="32" height="32"/>
			<rect x="128" y="320" width="32" height="32"/>
		</g>
	</g>
</g>
<g>
</g>
<g>
</g>
<g>
</g>
<g>
</g>
<g>
</g>
<g>
</g>
<g>
</g>
<g>
</g>
<g>
</g>
<g>
</g>
<g>
</g>
<g>
</g>
<g>
</g>
<g>
</g>
<g>
</g>
</svg>
