<?xml version="1.0" encoding="iso-8859-1"?>
<!-- Generator: Adobe Illustrator 19.0.0, SVG Export Plug-In . SVG Version: 6.00 Build 0)  -->
<svg version="1.1" id="Capa_1" xmlns="http://www.w3.org/2000/svg" xmlns:xlink="http://www.w3.org/1999/xlink" x="0px" y="0px"
	 viewBox="0 0 512 512" style="enable-background:new 0 0 512 512;" fill="#222121" xml:space="preserve">
<g>
	<g>
		<g>
			<rect x="64" y="64" width="32" height="32"/>
			<rect y="64" width="32" height="32"/>
			<path d="M432,128h-80V64H128v32h192v232.896c-14.716,8.562-25.414,22.634-29.728,39.104H189.728
				c-8.677-34.091-43.348-54.694-77.439-46.017C89.68,327.737,72.026,345.391,66.272,368H0v32h66.272
				c8.677,34.091,43.348,54.694,77.439,46.017c22.609-5.754,40.263-23.408,46.017-46.017h100.544
				c8.677,34.091,43.348,54.694,77.439,46.017c22.609-5.754,40.263-23.408,46.017-46.017H512V208
				C511.947,163.839,476.161,128.053,432,128z M128,416c-17.673,0-32-14.327-32-32c0-17.673,14.327-32,32-32s32,14.327,32,32
				C160,401.673,145.673,416,128,416z M352,160h32v80h-32V160z M352,416c-17.673,0-32-14.327-32-32c0-17.673,14.327-32,32-32
				c17.673,0,32,14.327,32,32C384,401.673,369.673,416,352,416z M480,304h-32v32h32v32h-66.272
				c-7.273-28.171-32.633-47.891-61.728-48v-48h128V304z M480,240h-64v-80h16c26.51,0,48,21.49,48,48V240z"/>
			<polygon points="96,240 217.376,240 180.688,276.688 203.312,299.312 278.624,224 203.312,148.688 180.688,171.312 217.376,208
				96,208 			"/>
			<rect x="32" y="208" width="32" height="32"/>
			<rect x="64" y="144" width="64" height="32"/>
			<rect y="272" width="64" height="32"/>
		</g>
	</g>
</g>
<g>
</g>
<g>
</g>
<g>
</g>
<g>
</g>
<g>
</g>
<g>
</g>
<g>
</g>
<g>
</g>
<g>
</g>
<g>
</g>
<g>
</g>
<g>
</g>
<g>
</g>
<g>
</g>
<g>
</g>
</svg>
