<?xml version="1.0" encoding="iso-8859-1"?>
<!-- Generator: Adobe Illustrator 19.0.0, SVG Export Plug-In . SVG Version: 6.00 Build 0)  -->
<svg version="1.1" id="Capa_1" xmlns="http://www.w3.org/2000/svg" xmlns:xlink="http://www.w3.org/1999/xlink" x="0px" y="0px"
	 viewBox="0 0 512 512" style="enable-background:new 0 0 512 512;" fill="#222121" xml:space="preserve">
<g>
	<g>
		<g>
			<path d="M96,80V48H0v32h64v384h32v-32h416V80H96z M96,304h96v32H96V304z M480,400H96v-32h128v-96H96v-32h64v-32H96v-32h64v-32H96
				v-32h384V400z"/>
			<rect y="144" width="32" height="32"/>
			<rect y="208" width="32" height="32"/>
			<rect y="272" width="32" height="32"/>
			<rect y="336" width="32" height="32"/>
			<rect x="192" y="144" width="32" height="96"/>
			<rect x="256" y="144" width="32" height="160"/>
			<rect x="256" y="336" width="32" height="32"/>
			<rect x="320" y="144" width="128" height="32"/>
			<rect x="320" y="208" width="128" height="32"/>
			<rect x="320" y="272" width="128" height="32"/>
			<rect x="352" y="336" width="32" height="32"/>
			<rect x="416" y="336" width="32" height="32"/>
		</g>
	</g>
</g>
<g>
</g>
<g>
</g>
<g>
</g>
<g>
</g>
<g>
</g>
<g>
</g>
<g>
</g>
<g>
</g>
<g>
</g>
<g>
</g>
<g>
</g>
<g>
</g>
<g>
</g>
<g>
</g>
<g>
</g>
</svg>
