<?xml version="1.0" encoding="iso-8859-1"?>
<!-- Generator: Adobe Illustrator 19.0.0, SVG Export Plug-In . SVG Version: 6.00 Build 0)  -->
<svg version="1.1" id="Capa_1" xmlns="http://www.w3.org/2000/svg" xmlns:xlink="http://www.w3.org/1999/xlink" x="0px" y="0px"
	 viewBox="0 0 512 512" style="enable-background:new 0 0 512 512;" fill="#222121" xml:space="preserve">
<g>
	<g>
		<g>
			<path  d="M448,256h-96v96h64v160h32V352h64v-96H448z M480,320h-96v-32h96V320z"/>
			<rect x="64" y="192" width="32" height="32"/>
			<rect x="64" y="128" width="32" height="32"/>
			<rect x="64" y="64" width="32" height="32"/>
			<rect x="64" width="32" height="32"/>
			<path d="M96,320H64v32H0v96h64v64h32v-64h64v-96H96V320z M128,384v32H32v-32H128z"/>
			<rect x="64" y="256" width="32" height="32"/>
			<rect x="240" width="32" height="32"/>
			<path d="M272,64h-32v32h-64v96h64v320h32V192h64V96h-64V64z M304,128v32h-96v-32H304z"/>
			<rect x="416" y="64" width="32" height="32"/>
			<rect x="416" width="32" height="32"/>
			<rect x="416" y="128" width="32" height="32"/>
			<rect x="416" y="192" width="32" height="32"/>
		</g>
	</g>
</g>
<g>
</g>
<g>
</g>
<g>
</g>
<g>
</g>
<g>
</g>
<g>
</g>
<g>
</g>
<g>
</g>
<g>
</g>
<g>
</g>
<g>
</g>
<g>
</g>
<g>
</g>
<g>
</g>
<g>
</g>
</svg>
